<?xml version="1.0" encoding="utf-8"?>
<svg id="U1F5D8" width="20" height="20" xmlns="http://www.w3.org/2000/svg">
  <path d="M 11.921 17.544 C 13.003 17.223 13.952 16.705 14.769 15.991 C 15.587 15.276 16.227 14.424 16.691 13.432 C 17.154 12.442 17.385 11.379 17.385 10.247 C 17.385 9.269 17.202 8.32 16.835 7.399 C 16.468 6.479 15.944 5.685 15.262 5.015 C 15.145 4.9 15.049 4.809 14.972 4.745 C 14.895 4.68 14.824 4.622 14.76 4.571 L 13.621 5.865 C 13.672 5.916 13.721 5.964 13.766 6.01 C 13.81 6.055 13.859 6.097 13.91 6.135 C 14.464 6.688 14.885 7.325 15.174 8.046 C 15.465 8.767 15.61 9.514 15.61 10.286 C 15.61 11.096 15.454 11.866 15.145 12.593 C 14.838 13.319 14.406 13.96 13.852 14.514 C 13.299 15.067 12.642 15.492 11.883 15.788 L 11.787 12.911 L 8.177 16.792 L 12.019 20.016 L 11.921 17.544 Z M 5.898 14.649 C 5.847 14.597 5.799 14.552 5.754 14.514 C 5.709 14.475 5.667 14.431 5.629 14.378 C 5.075 13.824 4.65 13.191 4.354 12.477 C 4.058 11.763 3.91 11.025 3.91 10.266 C 3.91 9.456 4.061 8.687 4.364 7.959 C 4.666 7.232 5.097 6.589 5.658 6.028 C 6.217 5.469 6.877 5.04 7.636 4.745 L 7.732 7.603 L 11.362 3.721 L 7.482 0.517 L 7.578 2.969 C 6.523 3.291 5.583 3.808 4.759 4.522 C 3.936 5.238 3.293 6.084 2.829 7.062 C 2.365 8.04 2.134 9.095 2.134 10.228 C 2.134 11.232 2.323 12.193 2.704 13.114 C 3.084 14.035 3.627 14.854 4.335 15.575 C 4.425 15.666 4.505 15.742 4.577 15.807 C 4.646 15.871 4.728 15.935 4.817 16 L 5.898 14.649 Z" style=""/>
</svg>